<?xml version="1.0" standalone="no"?>
 <!DOCTYPE svg PUBLIC "-//W3C//DTD SVG 1.1//EN" 
 "http://www.w3.org/Graphics/SVG/1.1/DTD/svg11.dtd"> 
<svg xmlns="http://www.w3.org/2000/svg" version="1.1" 
    width="29.7002cm" height="21.0007cm" viewBox="0 0 116930 82680 ">
<title>SVG Picture created as tk-x90-tnc-adapter.svg date 2020/07/19 21:13:59 </title>
  <desc>Picture generated by Eeschema-SVG </desc>
<g style="fill:#000000; fill-opacity:1;stroke:#000000; stroke-opacity:1;
stroke-linecap:round; stroke-linejoin:round; "
 transform="translate(0 0) scale(1 1)">
</g>
<g style="fill:#000000; fill-opacity:0.0; 
stroke:#000000; stroke-width:0; stroke-opacity:1; 
stroke-linecap:round; stroke-linejoin:round;">
<g >
</g>
<g style="fill:#840000; fill-opacity:0.0; 
stroke:#840000; stroke-width:0; stroke-opacity:1; 
stroke-linecap:round; stroke-linejoin:round;">
</g>
<g style="fill:#FFFFC2; fill-opacity:0.0; 
stroke:#FFFFC2; stroke-width:0; stroke-opacity:1; 
stroke-linecap:round; stroke-linejoin:round;">
</g>
<g style="fill:#FFFFC2; fill-opacity:0.6; 
stroke:#FFFFC2; stroke-width:0; stroke-opacity:1; 
stroke-linecap:round; stroke-linejoin:round;">
<rect x="45500" y="25500" width="3500" height="4500" rx="0" />
</g>
<g style="fill:#840000; fill-opacity:0.6; 
stroke:#840000; stroke-width:0; stroke-opacity:1; 
stroke-linecap:round; stroke-linejoin:round;">
</g>
<g style="fill:#840000; fill-opacity:0.0; 
stroke:#840000; stroke-width:100; stroke-opacity:1; 
stroke-linecap:round; stroke-linejoin:round;">
<rect x="45500" y="25500" width="3500" height="4500" rx="0" />
</g>
<g style="fill:#840000; fill-opacity:1.0; 
stroke:#840000; stroke-width:100; stroke-opacity:1; 
stroke-linecap:round; stroke-linejoin:round;">
<rect x="45000" y="29000" width="500" height="1000" rx="0" />
</g>
<g style="fill:#840000; fill-opacity:0.0; 
stroke:#840000; stroke-width:100; stroke-opacity:1; 
stroke-linecap:round; stroke-linejoin:round;">
<rect x="45500" y="25500" width="3500" height="4500" rx="0" />
<path style="fill:#840000; fill-opacity:0.0; 
stroke:#840000; stroke-width:100; stroke-opacity:1; 
stroke-linecap:round; stroke-linejoin:round;fill:none"
d="M 48000,29000
48250,29250
48500,29000
49000,29000
" /> 
<path style="fill:#840000; fill-opacity:0.0; 
stroke:#840000; stroke-width:100; stroke-opacity:1; 
stroke-linecap:round; stroke-linejoin:round;fill:none"
d="M 45750,29000
46000,29250
46250,29000
46250,26000
49000,26000
" /> 
<path style="fill:#840000; fill-opacity:0.0; 
stroke:#840000; stroke-width:100; stroke-opacity:1; 
stroke-linecap:round; stroke-linejoin:round;fill:none"
d="M 47250,29000
47500,29250
47750,29000
47750,28000
49000,28000
" /> 
<path style="fill:#840000; fill-opacity:0.0; 
stroke:#840000; stroke-width:100; stroke-opacity:1; 
stroke-linecap:round; stroke-linejoin:round;fill:none"
d="M 49000,27000
47000,27000
47000,29000
46750,29250
46500,29000
" /> 
</g>
<g style="fill:#840000; fill-opacity:0.0; 
stroke:#840000; stroke-width:60; stroke-opacity:1; 
stroke-linecap:round; stroke-linejoin:round;">
<path d="M49000 28000
L50000 28000
" />
<text x="49500" y="27900"
textLength="990" font-size="660" lengthAdjust="spacingAndGlyphs"
text-anchor="middle" opacity="0">R1</text>
<path d="M49410 27870
L49250 27630
" />
<path d="M49130 27870
L49130 27370
L49320 27370
L49360 27400
L49390 27420
L49410 27470
L49410 27540
L49390 27590
L49360 27610
L49320 27630
L49130 27630
" />
<path d="M49890 27870
L49600 27870
" />
<path d="M49750 27870
L49750 27370
L49700 27440
L49650 27490
L49600 27510
" />
<path d="M49000 27000
L50000 27000
" />
<text x="49500" y="26900"
textLength="1040" font-size="660" lengthAdjust="spacingAndGlyphs"
text-anchor="middle" opacity="0">R2</text>
<path d="M49410 26870
L49250 26630
" />
<path d="M49130 26870
L49130 26370
L49320 26370
L49360 26400
L49390 26420
L49410 26470
L49410 26540
L49390 26590
L49360 26610
L49320 26630
L49130 26630
" />
<path d="M49600 26420
L49630 26400
L49670 26370
L49790 26370
L49840 26400
L49860 26420
L49890 26470
L49890 26510
L49860 26590
L49580 26870
L49890 26870
" />
<path d="M49000 26000
L50000 26000
" />
<text x="49500" y="25900"
textLength="540" font-size="660" lengthAdjust="spacingAndGlyphs"
text-anchor="middle" opacity="0">S</text>
<path d="M49350 25850
L49420 25870
L49540 25870
L49590 25850
L49610 25820
L49640 25780
L49640 25730
L49610 25680
L49590 25660
L49540 25630
L49450 25610
L49400 25590
L49380 25560
L49350 25510
L49350 25470
L49380 25420
L49400 25400
L49450 25370
L49570 25370
L49640 25400
" />
<path d="M49000 29000
L50000 29000
" />
<text x="49500" y="28900"
textLength="440" font-size="660" lengthAdjust="spacingAndGlyphs"
text-anchor="middle" opacity="0">T</text>
<path d="M49350 28370
L49640 28370
" />
<path d="M49500 28870
L49500 28370
" />
</g>
<g style="fill:#008484; fill-opacity:0.0; 
stroke:#008484; stroke-width:60; stroke-opacity:1; 
stroke-linecap:round; stroke-linejoin:round;">
<text x="47570" y="24020"
textLength="870" font-size="660" lengthAdjust="spacingAndGlyphs"
text-anchor="middle" opacity="0">J?</text>
<path d="M47420 23490
L47420 23850
L47400 23920
L47350 23970
L47280 23990
L47230 23990
" />
<path d="M47730 23940
L47760 23970
L47730 23990
L47710 23970
L47730 23940
L47730 23990
" />
<path d="M47640 23520
L47680 23490
L47800 23490
L47850 23520
L47870 23560
L47870 23610
L47850 23660
L47830 23680
L47780 23710
L47760 23730
L47730 23780
L47730 23800
" />
<text x="47570" y="24930"
textLength="4230" font-size="660" lengthAdjust="spacingAndGlyphs"
text-anchor="middle" opacity="0">AudioJack4</text>
<path d="M45580 24760
L45820 24760
" />
<path d="M45530 24900
L45700 24400
L45860 24900
" />
<path d="M46240 24570
L46240 24900
" />
<path d="M46030 24570
L46030 24830
L46050 24880
L46100 24900
L46170 24900
L46220 24880
L46240 24850
" />
<path d="M46700 24900
L46700 24400
" />
<path d="M46700 24880
L46650 24900
L46550 24900
L46510 24880
L46480 24850
L46460 24810
L46460 24660
L46480 24620
L46510 24590
L46550 24570
L46650 24570
L46700 24590
" />
<path d="M46930 24900
L46930 24570
" />
<path d="M46930 24400
L46910 24430
L46930 24450
L46960 24430
L46930 24400
L46930 24450
" />
<path d="M47240 24900
L47200 24880
L47170 24850
L47150 24810
L47150 24660
L47170 24620
L47200 24590
L47240 24570
L47320 24570
L47360 24590
L47390 24620
L47410 24660
L47410 24810
L47390 24850
L47360 24880
L47320 24900
L47240 24900
" />
<path d="M47770 24400
L47770 24760
L47740 24830
L47700 24880
L47620 24900
L47580 24900
" />
<path d="M48220 24900
L48220 24640
L48200 24590
L48150 24570
L48050 24570
L48010 24590
" />
<path d="M48220 24880
L48170 24900
L48050 24900
L48010 24880
L47980 24830
L47980 24780
L48010 24730
L48050 24710
L48170 24710
L48220 24690
" />
<path d="M48670 24880
L48620 24900
L48530 24900
L48480 24880
L48460 24850
L48430 24810
L48430 24660
L48460 24620
L48480 24590
L48530 24570
L48620 24570
L48670 24590
" />
<path d="M48890 24900
L48890 24400
" />
<path d="M48930 24710
L49080 24900
" />
<path d="M49080 24570
L48890 24760
" />
<path d="M49510 24570
L49510 24900
" />
<path d="M49390 24380
L49270 24730
L49580 24730
" />
</g>
</g>
<g style="fill:#008484; fill-opacity:0.0; 
stroke:#008484; stroke-width:0; stroke-opacity:1; 
stroke-linecap:round; stroke-linejoin:round;">
<g >
</g>
<g style="fill:#840000; fill-opacity:0.0; 
stroke:#840000; stroke-width:0; stroke-opacity:1; 
stroke-linecap:round; stroke-linejoin:round;">
</g>
<g style="fill:#FFFFC2; fill-opacity:0.0; 
stroke:#FFFFC2; stroke-width:0; stroke-opacity:1; 
stroke-linecap:round; stroke-linejoin:round;">
</g>
<g style="fill:#FFFFC2; fill-opacity:0.6; 
stroke:#FFFFC2; stroke-width:0; stroke-opacity:1; 
stroke-linecap:round; stroke-linejoin:round;">
<path style="fill:#FFFFC2; fill-opacity:0.6; 
stroke:#FFFFC2; stroke-width:0; stroke-opacity:1; 
stroke-linecap:round; stroke-linejoin:round;fill-rule:evenodd;"
d="M 75500,39250
78500,37750
78500,14250
75500,12750
Z" /> 
</g>
<g style="fill:#840000; fill-opacity:0.6; 
stroke:#840000; stroke-width:0; stroke-opacity:1; 
stroke-linecap:round; stroke-linejoin:round;">
</g>
<g style="fill:#840000; fill-opacity:0.0; 
stroke:#840000; stroke-width:100; stroke-opacity:1; 
stroke-linecap:round; stroke-linejoin:round;">
<path style="fill:#840000; fill-opacity:0.0; 
stroke:#840000; stroke-width:100; stroke-opacity:1; 
stroke-linecap:round; stroke-linejoin:round;fill:none"
d="M 75500,39250
78500,37750
78500,14250
75500,12750
Z" /> 
</g>
<g style="fill:#840000; fill-opacity:1.0; 
stroke:#840000; stroke-width:60; stroke-opacity:1; 
stroke-linecap:round; stroke-linejoin:round;">
<circle cx="76300" cy="38000" r="300" /> 
<circle cx="76300" cy="36000" r="300" /> 
<circle cx="76300" cy="34000" r="300" /> 
<circle cx="76300" cy="32000" r="300" /> 
<circle cx="76300" cy="30000" r="300" /> 
<circle cx="76300" cy="28000" r="300" /> 
<circle cx="76300" cy="26000" r="300" /> 
<circle cx="76300" cy="24000" r="300" /> 
<circle cx="76300" cy="22000" r="300" /> 
<circle cx="76300" cy="20000" r="300" /> 
<circle cx="76300" cy="18000" r="300" /> 
<circle cx="76300" cy="16000" r="300" /> 
<circle cx="76300" cy="14000" r="300" /> 
<circle cx="77500" cy="37000" r="300" /> 
<circle cx="77500" cy="35000" r="300" /> 
<circle cx="77500" cy="33000" r="300" /> 
<circle cx="77500" cy="31000" r="300" /> 
<circle cx="77500" cy="29000" r="300" /> 
<circle cx="77500" cy="27000" r="300" /> 
<circle cx="77500" cy="25000" r="300" /> 
<circle cx="77500" cy="23000" r="300" /> 
<circle cx="77500" cy="21000" r="300" /> 
<circle cx="77500" cy="19000" r="300" /> 
<circle cx="77500" cy="17000" r="300" /> 
<circle cx="77500" cy="15000" r="300" /> 
</g>
<g style="fill:#840000; fill-opacity:0.0; 
stroke:#840000; stroke-width:60; stroke-opacity:1; 
stroke-linecap:round; stroke-linejoin:round;">
<path style="fill:#840000; fill-opacity:0.0; 
stroke:#840000; stroke-width:60; stroke-opacity:1; 
stroke-linecap:round; stroke-linejoin:round;fill:none"
d="M 75500,38000
76000,38000
" /> 
<path style="fill:#840000; fill-opacity:0.0; 
stroke:#840000; stroke-width:60; stroke-opacity:1; 
stroke-linecap:round; stroke-linejoin:round;fill:none"
d="M 75500,37000
77200,37000
" /> 
<path style="fill:#840000; fill-opacity:0.0; 
stroke:#840000; stroke-width:60; stroke-opacity:1; 
stroke-linecap:round; stroke-linejoin:round;fill:none"
d="M 75500,36000
76000,36000
" /> 
<path style="fill:#840000; fill-opacity:0.0; 
stroke:#840000; stroke-width:60; stroke-opacity:1; 
stroke-linecap:round; stroke-linejoin:round;fill:none"
d="M 75500,35000
77200,35000
" /> 
<path style="fill:#840000; fill-opacity:0.0; 
stroke:#840000; stroke-width:60; stroke-opacity:1; 
stroke-linecap:round; stroke-linejoin:round;fill:none"
d="M 75500,34000
76000,34000
" /> 
<path style="fill:#840000; fill-opacity:0.0; 
stroke:#840000; stroke-width:60; stroke-opacity:1; 
stroke-linecap:round; stroke-linejoin:round;fill:none"
d="M 75500,33000
77200,33000
" /> 
<path style="fill:#840000; fill-opacity:0.0; 
stroke:#840000; stroke-width:60; stroke-opacity:1; 
stroke-linecap:round; stroke-linejoin:round;fill:none"
d="M 75500,32000
76000,32000
" /> 
<path style="fill:#840000; fill-opacity:0.0; 
stroke:#840000; stroke-width:60; stroke-opacity:1; 
stroke-linecap:round; stroke-linejoin:round;fill:none"
d="M 75500,31000
77200,31000
" /> 
<path style="fill:#840000; fill-opacity:0.0; 
stroke:#840000; stroke-width:60; stroke-opacity:1; 
stroke-linecap:round; stroke-linejoin:round;fill:none"
d="M 75500,30000
76000,30000
" /> 
<path style="fill:#840000; fill-opacity:0.0; 
stroke:#840000; stroke-width:60; stroke-opacity:1; 
stroke-linecap:round; stroke-linejoin:round;fill:none"
d="M 75500,29000
77200,29000
" /> 
<path style="fill:#840000; fill-opacity:0.0; 
stroke:#840000; stroke-width:60; stroke-opacity:1; 
stroke-linecap:round; stroke-linejoin:round;fill:none"
d="M 75500,28000
76000,28000
" /> 
<path style="fill:#840000; fill-opacity:0.0; 
stroke:#840000; stroke-width:60; stroke-opacity:1; 
stroke-linecap:round; stroke-linejoin:round;fill:none"
d="M 75500,27000
77200,27000
" /> 
<path style="fill:#840000; fill-opacity:0.0; 
stroke:#840000; stroke-width:60; stroke-opacity:1; 
stroke-linecap:round; stroke-linejoin:round;fill:none"
d="M 75500,26000
76000,26000
" /> 
<path style="fill:#840000; fill-opacity:0.0; 
stroke:#840000; stroke-width:60; stroke-opacity:1; 
stroke-linecap:round; stroke-linejoin:round;fill:none"
d="M 75500,25000
77200,25000
" /> 
<path style="fill:#840000; fill-opacity:0.0; 
stroke:#840000; stroke-width:60; stroke-opacity:1; 
stroke-linecap:round; stroke-linejoin:round;fill:none"
d="M 75500,24000
76000,24000
" /> 
<path style="fill:#840000; fill-opacity:0.0; 
stroke:#840000; stroke-width:60; stroke-opacity:1; 
stroke-linecap:round; stroke-linejoin:round;fill:none"
d="M 75500,23000
77200,23000
" /> 
<path style="fill:#840000; fill-opacity:0.0; 
stroke:#840000; stroke-width:60; stroke-opacity:1; 
stroke-linecap:round; stroke-linejoin:round;fill:none"
d="M 75500,22000
76000,22000
" /> 
<path style="fill:#840000; fill-opacity:0.0; 
stroke:#840000; stroke-width:60; stroke-opacity:1; 
stroke-linecap:round; stroke-linejoin:round;fill:none"
d="M 75500,21000
77200,21000
" /> 
<path style="fill:#840000; fill-opacity:0.0; 
stroke:#840000; stroke-width:60; stroke-opacity:1; 
stroke-linecap:round; stroke-linejoin:round;fill:none"
d="M 75500,20000
76000,20000
" /> 
<path style="fill:#840000; fill-opacity:0.0; 
stroke:#840000; stroke-width:60; stroke-opacity:1; 
stroke-linecap:round; stroke-linejoin:round;fill:none"
d="M 75500,19000
77200,19000
" /> 
<path style="fill:#840000; fill-opacity:0.0; 
stroke:#840000; stroke-width:60; stroke-opacity:1; 
stroke-linecap:round; stroke-linejoin:round;fill:none"
d="M 75500,18000
76000,18000
" /> 
<path style="fill:#840000; fill-opacity:0.0; 
stroke:#840000; stroke-width:60; stroke-opacity:1; 
stroke-linecap:round; stroke-linejoin:round;fill:none"
d="M 75500,17000
77200,17000
" /> 
<path style="fill:#840000; fill-opacity:0.0; 
stroke:#840000; stroke-width:60; stroke-opacity:1; 
stroke-linecap:round; stroke-linejoin:round;fill:none"
d="M 75500,16000
76000,16000
" /> 
<path style="fill:#840000; fill-opacity:0.0; 
stroke:#840000; stroke-width:60; stroke-opacity:1; 
stroke-linecap:round; stroke-linejoin:round;fill:none"
d="M 75500,15000
77200,15000
" /> 
<path style="fill:#840000; fill-opacity:0.0; 
stroke:#840000; stroke-width:60; stroke-opacity:1; 
stroke-linecap:round; stroke-linejoin:round;fill:none"
d="M 75500,14000
76000,14000
" /> 
</g>
<g style="fill:#840000; fill-opacity:0.0; 
stroke:#840000; stroke-width:100; stroke-opacity:1; 
stroke-linecap:round; stroke-linejoin:round;">
<path style="fill:#840000; fill-opacity:0.0; 
stroke:#840000; stroke-width:100; stroke-opacity:1; 
stroke-linecap:round; stroke-linejoin:round;fill:none"
d="M 75500,39250
78500,37750
78500,14250
75500,12750
Z" /> 
</g>
<g style="fill:#840000; fill-opacity:0.0; 
stroke:#840000; stroke-width:60; stroke-opacity:1; 
stroke-linecap:round; stroke-linejoin:round;">
<path d="M75500 38000
L74000 38000
" />
<text x="74750" y="37900"
textLength="540" font-size="660" lengthAdjust="spacingAndGlyphs"
text-anchor="middle" opacity="0">1</text>
<path d="M74890 37870
L74600 37870
" />
<path d="M74750 37870
L74750 37370
L74700 37440
L74650 37490
L74600 37510
" />
<path d="M75500 20000
L74000 20000
" />
<text x="74750" y="19900"
textLength="1010" font-size="660" lengthAdjust="spacingAndGlyphs"
text-anchor="middle" opacity="0">10</text>
<path d="M74650 19870
L74360 19870
" />
<path d="M74510 19870
L74510 19370
L74460 19440
L74410 19490
L74360 19510
" />
<path d="M74960 19370
L75010 19370
L75050 19400
L75080 19420
L75100 19470
L75130 19560
L75130 19680
L75100 19780
L75080 19820
L75050 19850
L75010 19870
L74960 19870
L74910 19850
L74890 19820
L74860 19780
L74840 19680
L74840 19560
L74860 19470
L74890 19420
L74910 19400
L74960 19370
" />
<path d="M75500 18000
L74000 18000
" />
<text x="74750" y="17900"
textLength="1010" font-size="660" lengthAdjust="spacingAndGlyphs"
text-anchor="middle" opacity="0">11</text>
<path d="M74650 17870
L74360 17870
" />
<path d="M74510 17870
L74510 17370
L74460 17440
L74410 17490
L74360 17510
" />
<path d="M75130 17870
L74840 17870
" />
<path d="M74980 17870
L74980 17370
L74940 17440
L74890 17490
L74840 17510
" />
<path d="M75500 16000
L74000 16000
" />
<text x="74750" y="15900"
textLength="1010" font-size="660" lengthAdjust="spacingAndGlyphs"
text-anchor="middle" opacity="0">12</text>
<path d="M74650 15870
L74360 15870
" />
<path d="M74510 15870
L74510 15370
L74460 15440
L74410 15490
L74360 15510
" />
<path d="M74840 15420
L74860 15400
L74910 15370
L75030 15370
L75080 15400
L75100 15420
L75130 15470
L75130 15510
L75100 15590
L74820 15870
L75130 15870
" />
<path d="M75500 14000
L74000 14000
" />
<text x="74750" y="13900"
textLength="1010" font-size="660" lengthAdjust="spacingAndGlyphs"
text-anchor="middle" opacity="0">13</text>
<path d="M74650 13870
L74360 13870
" />
<path d="M74510 13870
L74510 13370
L74460 13440
L74410 13490
L74360 13510
" />
<path d="M74820 13370
L75130 13370
L74960 13560
L75030 13560
L75080 13590
L75100 13610
L75130 13660
L75130 13780
L75100 13820
L75080 13850
L75030 13870
L74890 13870
L74840 13850
L74820 13820
" />
<path d="M75500 37000
L74000 37000
" />
<text x="74750" y="36900"
textLength="1010" font-size="660" lengthAdjust="spacingAndGlyphs"
text-anchor="middle" opacity="0">14</text>
<path d="M74650 36870
L74360 36870
" />
<path d="M74510 36870
L74510 36370
L74460 36440
L74410 36490
L74360 36510
" />
<path d="M75080 36540
L75080 36870
" />
<path d="M74960 36350
L74840 36700
L75150 36700
" />
<path d="M75500 35000
L74000 35000
" />
<text x="74750" y="34900"
textLength="1010" font-size="660" lengthAdjust="spacingAndGlyphs"
text-anchor="middle" opacity="0">15</text>
<path d="M74650 34870
L74360 34870
" />
<path d="M74510 34870
L74510 34370
L74460 34440
L74410 34490
L74360 34510
" />
<path d="M75100 34370
L74860 34370
L74840 34610
L74860 34590
L74910 34560
L75030 34560
L75080 34590
L75100 34610
L75130 34660
L75130 34780
L75100 34820
L75080 34850
L75030 34870
L74910 34870
L74860 34850
L74840 34820
" />
<path d="M75500 33000
L74000 33000
" />
<text x="74750" y="32900"
textLength="1010" font-size="660" lengthAdjust="spacingAndGlyphs"
text-anchor="middle" opacity="0">16</text>
<path d="M74650 32870
L74360 32870
" />
<path d="M74510 32870
L74510 32370
L74460 32440
L74410 32490
L74360 32510
" />
<path d="M75080 32370
L74980 32370
L74940 32400
L74910 32420
L74860 32490
L74840 32590
L74840 32780
L74860 32820
L74890 32850
L74940 32870
L75030 32870
L75080 32850
L75100 32820
L75130 32780
L75130 32660
L75100 32610
L75080 32590
L75030 32560
L74940 32560
L74890 32590
L74860 32610
L74840 32660
" />
<path d="M75500 31000
L74000 31000
" />
<text x="74750" y="30900"
textLength="1010" font-size="660" lengthAdjust="spacingAndGlyphs"
text-anchor="middle" opacity="0">17</text>
<path d="M74650 30870
L74360 30870
" />
<path d="M74510 30870
L74510 30370
L74460 30440
L74410 30490
L74360 30510
" />
<path d="M74820 30370
L75150 30370
L74940 30870
" />
<path d="M75500 29000
L74000 29000
" />
<text x="74750" y="28900"
textLength="1010" font-size="660" lengthAdjust="spacingAndGlyphs"
text-anchor="middle" opacity="0">18</text>
<path d="M74650 28870
L74360 28870
" />
<path d="M74510 28870
L74510 28370
L74460 28440
L74410 28490
L74360 28510
" />
<path d="M74940 28590
L74890 28560
L74860 28540
L74840 28490
L74840 28470
L74860 28420
L74890 28400
L74940 28370
L75030 28370
L75080 28400
L75100 28420
L75130 28470
L75130 28490
L75100 28540
L75080 28560
L75030 28590
L74940 28590
L74890 28610
L74860 28630
L74840 28680
L74840 28780
L74860 28820
L74890 28850
L74940 28870
L75030 28870
L75080 28850
L75100 28820
L75130 28780
L75130 28680
L75100 28630
L75080 28610
L75030 28590
" />
<path d="M75500 27000
L74000 27000
" />
<text x="74750" y="26900"
textLength="1010" font-size="660" lengthAdjust="spacingAndGlyphs"
text-anchor="middle" opacity="0">19</text>
<path d="M74650 26870
L74360 26870
" />
<path d="M74510 26870
L74510 26370
L74460 26440
L74410 26490
L74360 26510
" />
<path d="M74890 26870
L74980 26870
L75030 26850
L75050 26820
L75100 26750
L75130 26660
L75130 26470
L75100 26420
L75080 26400
L75030 26370
L74940 26370
L74890 26400
L74860 26420
L74840 26470
L74840 26590
L74860 26630
L74890 26660
L74940 26680
L75030 26680
L75080 26660
L75100 26630
L75130 26590
" />
<path d="M75500 36000
L74000 36000
" />
<text x="74750" y="35900"
textLength="540" font-size="660" lengthAdjust="spacingAndGlyphs"
text-anchor="middle" opacity="0">2</text>
<path d="M74600 35420
L74630 35400
L74670 35370
L74790 35370
L74840 35400
L74860 35420
L74890 35470
L74890 35510
L74860 35590
L74580 35870
L74890 35870
" />
<path d="M75500 25000
L74000 25000
" />
<text x="74750" y="24900"
textLength="1010" font-size="660" lengthAdjust="spacingAndGlyphs"
text-anchor="middle" opacity="0">20</text>
<path d="M74360 24420
L74390 24400
L74440 24370
L74550 24370
L74600 24400
L74630 24420
L74650 24470
L74650 24510
L74630 24590
L74340 24870
L74650 24870
" />
<path d="M74960 24370
L75010 24370
L75050 24400
L75080 24420
L75100 24470
L75130 24560
L75130 24680
L75100 24780
L75080 24820
L75050 24850
L75010 24870
L74960 24870
L74910 24850
L74890 24820
L74860 24780
L74840 24680
L74840 24560
L74860 24470
L74890 24420
L74910 24400
L74960 24370
" />
<path d="M75500 23000
L74000 23000
" />
<text x="74750" y="22900"
textLength="1010" font-size="660" lengthAdjust="spacingAndGlyphs"
text-anchor="middle" opacity="0">21</text>
<path d="M74360 22420
L74390 22400
L74440 22370
L74550 22370
L74600 22400
L74630 22420
L74650 22470
L74650 22510
L74630 22590
L74340 22870
L74650 22870
" />
<path d="M75130 22870
L74840 22870
" />
<path d="M74980 22870
L74980 22370
L74940 22440
L74890 22490
L74840 22510
" />
<path d="M75500 21000
L74000 21000
" />
<text x="74750" y="20900"
textLength="1010" font-size="660" lengthAdjust="spacingAndGlyphs"
text-anchor="middle" opacity="0">22</text>
<path d="M74360 20420
L74390 20400
L74440 20370
L74550 20370
L74600 20400
L74630 20420
L74650 20470
L74650 20510
L74630 20590
L74340 20870
L74650 20870
" />
<path d="M74840 20420
L74860 20400
L74910 20370
L75030 20370
L75080 20400
L75100 20420
L75130 20470
L75130 20510
L75100 20590
L74820 20870
L75130 20870
" />
<path d="M75500 19000
L74000 19000
" />
<text x="74750" y="18900"
textLength="1010" font-size="660" lengthAdjust="spacingAndGlyphs"
text-anchor="middle" opacity="0">23</text>
<path d="M74360 18420
L74390 18400
L74440 18370
L74550 18370
L74600 18400
L74630 18420
L74650 18470
L74650 18510
L74630 18590
L74340 18870
L74650 18870
" />
<path d="M74820 18370
L75130 18370
L74960 18560
L75030 18560
L75080 18590
L75100 18610
L75130 18660
L75130 18780
L75100 18820
L75080 18850
L75030 18870
L74890 18870
L74840 18850
L74820 18820
" />
<path d="M75500 17000
L74000 17000
" />
<text x="74750" y="16900"
textLength="1010" font-size="660" lengthAdjust="spacingAndGlyphs"
text-anchor="middle" opacity="0">24</text>
<path d="M74360 16420
L74390 16400
L74440 16370
L74550 16370
L74600 16400
L74630 16420
L74650 16470
L74650 16510
L74630 16590
L74340 16870
L74650 16870
" />
<path d="M75080 16540
L75080 16870
" />
<path d="M74960 16350
L74840 16700
L75150 16700
" />
<path d="M75500 15000
L74000 15000
" />
<text x="74750" y="14900"
textLength="1010" font-size="660" lengthAdjust="spacingAndGlyphs"
text-anchor="middle" opacity="0">25</text>
<path d="M74360 14420
L74390 14400
L74440 14370
L74550 14370
L74600 14400
L74630 14420
L74650 14470
L74650 14510
L74630 14590
L74340 14870
L74650 14870
" />
<path d="M75100 14370
L74860 14370
L74840 14610
L74860 14590
L74910 14560
L75030 14560
L75080 14590
L75100 14610
L75130 14660
L75130 14780
L75100 14820
L75080 14850
L75030 14870
L74910 14870
L74860 14850
L74840 14820
" />
<path d="M75500 34000
L74000 34000
" />
<text x="74750" y="33900"
textLength="540" font-size="660" lengthAdjust="spacingAndGlyphs"
text-anchor="middle" opacity="0">3</text>
<path d="M74580 33370
L74890 33370
L74720 33560
L74790 33560
L74840 33590
L74860 33610
L74890 33660
L74890 33780
L74860 33820
L74840 33850
L74790 33870
L74650 33870
L74600 33850
L74580 33820
" />
<path d="M75500 32000
L74000 32000
" />
<text x="74750" y="31900"
textLength="540" font-size="660" lengthAdjust="spacingAndGlyphs"
text-anchor="middle" opacity="0">4</text>
<path d="M74840 31540
L74840 31870
" />
<path d="M74720 31350
L74600 31700
L74910 31700
" />
<path d="M75500 30000
L74000 30000
" />
<text x="74750" y="29900"
textLength="540" font-size="660" lengthAdjust="spacingAndGlyphs"
text-anchor="middle" opacity="0">5</text>
<path d="M74860 29370
L74630 29370
L74600 29610
L74630 29590
L74670 29560
L74790 29560
L74840 29590
L74860 29610
L74890 29660
L74890 29780
L74860 29820
L74840 29850
L74790 29870
L74670 29870
L74630 29850
L74600 29820
" />
<path d="M75500 28000
L74000 28000
" />
<text x="74750" y="27900"
textLength="540" font-size="660" lengthAdjust="spacingAndGlyphs"
text-anchor="middle" opacity="0">6</text>
<path d="M74840 27370
L74750 27370
L74700 27400
L74670 27420
L74630 27490
L74600 27590
L74600 27780
L74630 27820
L74650 27850
L74700 27870
L74790 27870
L74840 27850
L74860 27820
L74890 27780
L74890 27660
L74860 27610
L74840 27590
L74790 27560
L74700 27560
L74650 27590
L74630 27610
L74600 27660
" />
<path d="M75500 26000
L74000 26000
" />
<text x="74750" y="25900"
textLength="540" font-size="660" lengthAdjust="spacingAndGlyphs"
text-anchor="middle" opacity="0">7</text>
<path d="M74580 25370
L74910 25370
L74700 25870
" />
<path d="M75500 24000
L74000 24000
" />
<text x="74750" y="23900"
textLength="540" font-size="660" lengthAdjust="spacingAndGlyphs"
text-anchor="middle" opacity="0">8</text>
<path d="M74700 23590
L74650 23560
L74630 23540
L74600 23490
L74600 23470
L74630 23420
L74650 23400
L74700 23370
L74790 23370
L74840 23400
L74860 23420
L74890 23470
L74890 23490
L74860 23540
L74840 23560
L74790 23590
L74700 23590
L74650 23610
L74630 23630
L74600 23680
L74600 23780
L74630 23820
L74650 23850
L74700 23870
L74790 23870
L74840 23850
L74860 23820
L74890 23780
L74890 23680
L74860 23630
L74840 23610
L74790 23590
" />
<path d="M75500 22000
L74000 22000
" />
<text x="74750" y="21900"
textLength="540" font-size="660" lengthAdjust="spacingAndGlyphs"
text-anchor="middle" opacity="0">9</text>
<path d="M74650 21870
L74750 21870
L74790 21850
L74820 21820
L74860 21750
L74890 21660
L74890 21470
L74860 21420
L74840 21400
L74790 21370
L74700 21370
L74650 21400
L74630 21420
L74600 21470
L74600 21590
L74630 21630
L74650 21660
L74700 21680
L74790 21680
L74840 21660
L74860 21630
L74890 21590
" />
</g>
<g style="fill:#008484; fill-opacity:0.0; 
stroke:#008484; stroke-width:60; stroke-opacity:1; 
stroke-linecap:round; stroke-linejoin:round;">
<text x="79230" y="25810"
textLength="870" font-size="660" lengthAdjust="spacingAndGlyphs"
text-anchor="middle" opacity="0">J?</text>
<path d="M79080 25280
L79080 25640
L79060 25710
L79010 25760
L78940 25780
L78890 25780
" />
<path d="M79390 25730
L79420 25760
L79390 25780
L79370 25760
L79390 25730
L79390 25780
" />
<path d="M79300 25310
L79340 25280
L79460 25280
L79510 25310
L79530 25350
L79530 25400
L79510 25450
L79490 25470
L79440 25500
L79420 25520
L79390 25570
L79390 25590
" />
<text x="80850" y="26720"
textLength="4110" font-size="660" lengthAdjust="spacingAndGlyphs"
text-anchor="middle" opacity="0">DB25_Male</text>
<path d="M78940 26690
L78940 26190
L79060 26190
L79130 26220
L79180 26260
L79200 26310
L79230 26410
L79230 26480
L79200 26570
L79180 26620
L79130 26670
L79060 26690
L78940 26690
" />
<path d="M79610 26430
L79680 26450
L79700 26480
L79730 26520
L79730 26600
L79700 26640
L79680 26670
L79630 26690
L79440 26690
L79440 26190
L79610 26190
L79650 26220
L79680 26240
L79700 26290
L79700 26330
L79680 26380
L79650 26410
L79610 26430
L79440 26430
" />
<path d="M79920 26240
L79940 26220
L79990 26190
L80110 26190
L80150 26220
L80180 26240
L80200 26290
L80200 26330
L80180 26410
L79890 26690
L80200 26690
" />
<path d="M80650 26190
L80420 26190
L80390 26430
L80420 26410
L80460 26380
L80580 26380
L80630 26410
L80650 26430
L80680 26480
L80680 26600
L80650 26640
L80630 26670
L80580 26690
L80460 26690
L80420 26670
L80390 26640
" />
<path d="M80770 26740
L81150 26740
" />
<path d="M81270 26690
L81270 26190
L81440 26550
L81610 26190
L81610 26690
" />
<path d="M82060 26690
L82060 26430
L82040 26380
L81990 26360
L81890 26360
L81850 26380
" />
<path d="M82060 26670
L82010 26690
L81890 26690
L81850 26670
L81820 26620
L81820 26570
L81850 26520
L81890 26500
L82010 26500
L82060 26480
" />
<path d="M82370 26690
L82320 26670
L82300 26620
L82300 26190
" />
<path d="M82750 26670
L82700 26690
L82610 26690
L82560 26670
L82540 26620
L82540 26430
L82560 26380
L82610 26360
L82700 26360
L82750 26380
L82770 26430
L82770 26480
L82540 26520
" />
</g>
</g>
<g style="fill:#008484; fill-opacity:0.0; 
stroke:#008484; stroke-width:60; stroke-opacity:1; 
stroke-linecap:round; stroke-linejoin:round;">
</g>
<g style="fill:#008400; fill-opacity:0.0; 
stroke:#008400; stroke-width:60; stroke-opacity:1; 
stroke-linecap:round; stroke-linejoin:round;">
<path d="M56000 27000
L50000 27000
" />
<path d="M56000 28000
L50000 28000
" />
<path d="M56000 36000
L56000 28000
" />
<path d="M74000 36000
L56000 36000
" />
<path d="M56000 14000
L56000 27000
" />
<path d="M74000 14000
L56000 14000
" />
<path d="M62000 29000
L50000 29000
" />
<path d="M62000 27000
L62000 29000
" />
<path d="M74000 27000
L62000 27000
" />
<path d="M50000 26000
L74000 26000
" />
</g>
<g style="fill:#000000; fill-opacity:0.0; 
stroke:#000000; stroke-width:60; stroke-opacity:1; 
stroke-linecap:round; stroke-linejoin:round;">
<text x="71000" y="26900"
textLength="1540" font-size="660" lengthAdjust="spacingAndGlyphs"
text-anchor="start" opacity="0">DEO</text>
<path d="M71140 26870
L71140 26370
L71260 26370
L71330 26400
L71380 26440
L71410 26490
L71430 26590
L71430 26660
L71410 26750
L71380 26800
L71330 26850
L71260 26870
L71140 26870
" />
<path d="M71640 26610
L71810 26610
" />
<path d="M71880 26870
L71640 26870
L71640 26370
L71880 26370
" />
<path d="M72190 26370
L72290 26370
L72330 26400
L72380 26440
L72410 26540
L72410 26700
L72380 26800
L72330 26850
L72290 26870
L72190 26870
L72140 26850
L72100 26800
L72070 26700
L72070 26540
L72100 26440
L72140 26400
L72190 26370
" />
<text x="71000" y="13900"
textLength="800" font-size="660" lengthAdjust="spacingAndGlyphs"
text-anchor="start" opacity="0">DI</text>
<path d="M71140 13870
L71140 13370
L71260 13370
L71330 13400
L71380 13440
L71410 13490
L71430 13590
L71430 13660
L71410 13750
L71380 13800
L71330 13850
L71260 13870
L71140 13870
" />
<path d="M71640 13870
L71640 13370
" />
<text x="71000" y="25900"
textLength="510" font-size="660" lengthAdjust="spacingAndGlyphs"
text-anchor="start" opacity="0">E</text>
<path d="M71140 25610
L71310 25610
" />
<path d="M71380 25870
L71140 25870
L71140 25370
L71380 25370
" />
<text x="71000" y="35900"
textLength="1200" font-size="660" lengthAdjust="spacingAndGlyphs"
text-anchor="start" opacity="0">AI1</text>
<path d="M71120 35730
L71360 35730
" />
<path d="M71070 35870
L71240 35370
L71410 35870
" />
<path d="M71570 35870
L71570 35370
" />
<path d="M72070 35870
L71790 35870
" />
<path d="M71930 35870
L71930 35370
L71880 35440
L71830 35490
L71790 35510
" />
<text x="51000" y="28900"
textLength="3420" font-size="660" lengthAdjust="spacingAndGlyphs"
text-anchor="start" opacity="0">AUDIO_IN</text>
<path d="M51120 28730
L51360 28730
" />
<path d="M51070 28870
L51240 28370
L51410 28870
" />
<path d="M51570 28370
L51570 28780
L51600 28820
L51620 28850
L51670 28870
L51760 28870
L51810 28850
L51830 28820
L51860 28780
L51860 28370
" />
<path d="M52100 28870
L52100 28370
L52220 28370
L52290 28400
L52330 28440
L52360 28490
L52380 28590
L52380 28660
L52360 28750
L52330 28800
L52290 28850
L52220 28870
L52100 28870
" />
<path d="M52600 28870
L52600 28370
" />
<path d="M52930 28370
L53030 28370
L53070 28400
L53120 28440
L53140 28540
L53140 28700
L53120 28800
L53070 28850
L53030 28870
L52930 28870
L52880 28850
L52830 28800
L52810 28700
L52810 28540
L52830 28440
L52880 28400
L52930 28370
" />
<path d="M53240 28920
L53620 28920
" />
<path d="M53740 28870
L53740 28370
" />
<path d="M53980 28870
L53980 28370
L54260 28870
L54260 28370
" />
<text x="51000" y="27900"
textLength="1320" font-size="660" lengthAdjust="spacingAndGlyphs"
text-anchor="start" opacity="0">PTT</text>
<path d="M51140 27870
L51140 27370
L51330 27370
L51380 27400
L51410 27420
L51430 27470
L51430 27540
L51410 27590
L51380 27610
L51330 27630
L51140 27630
" />
<path d="M51570 27370
L51860 27370
" />
<path d="M51720 27870
L51720 27370
" />
<path d="M51950 27370
L52240 27370
" />
<path d="M52100 27870
L52100 27370
" />
<text x="51000" y="26900"
textLength="4080" font-size="660" lengthAdjust="spacingAndGlyphs"
text-anchor="start" opacity="0">AUDIO_OUT</text>
<path d="M51120 26730
L51360 26730
" />
<path d="M51070 26870
L51240 26370
L51410 26870
" />
<path d="M51570 26370
L51570 26780
L51600 26820
L51620 26850
L51670 26870
L51760 26870
L51810 26850
L51830 26820
L51860 26780
L51860 26370
" />
<path d="M52100 26870
L52100 26370
L52220 26370
L52290 26400
L52330 26440
L52360 26490
L52380 26590
L52380 26660
L52360 26750
L52330 26800
L52290 26850
L52220 26870
L52100 26870
" />
<path d="M52600 26870
L52600 26370
" />
<path d="M52930 26370
L53030 26370
L53070 26400
L53120 26440
L53140 26540
L53140 26700
L53120 26800
L53070 26850
L53030 26870
L52930 26870
L52880 26850
L52830 26800
L52810 26700
L52810 26540
L52830 26440
L52880 26400
L52930 26370
" />
<path d="M53240 26920
L53620 26920
" />
<path d="M53830 26370
L53930 26370
L53980 26400
L54030 26440
L54050 26540
L54050 26700
L54030 26800
L53980 26850
L53930 26870
L53830 26870
L53790 26850
L53740 26800
L53720 26700
L53720 26540
L53740 26440
L53790 26400
L53830 26370
" />
<path d="M54260 26370
L54260 26780
L54290 26820
L54310 26850
L54360 26870
L54450 26870
L54500 26850
L54530 26820
L54550 26780
L54550 26370
" />
<path d="M54720 26370
L55000 26370
" />
<path d="M54860 26870
L54860 26370
" />
<text x="51000" y="25900"
textLength="1580" font-size="660" lengthAdjust="spacingAndGlyphs"
text-anchor="start" opacity="0">GND</text>
<path d="M51410 25400
L51360 25370
L51290 25370
L51220 25400
L51170 25440
L51140 25490
L51120 25590
L51120 25660
L51140 25750
L51170 25800
L51220 25850
L51290 25870
L51330 25870
L51410 25850
L51430 25820
L51430 25660
L51330 25660
" />
<path d="M51640 25870
L51640 25370
L51930 25870
L51930 25370
" />
<path d="M52170 25870
L52170 25370
L52290 25370
L52360 25400
L52410 25440
L52430 25490
L52450 25590
L52450 25660
L52430 25750
L52410 25800
L52360 25850
L52290 25870
L52170 25870
" />
</g> 
</svg>
